<svg width="32" height="32" fill="none" xmlns="http://www.w3.org/2000/svg"><circle cx="16" cy="16" r="16" fill="#717171"/><path d="M19.325 22.585A10.922 10.922 0 018.416 11.676a3.258 3.258 0 013.259-3.258 2.77 2.77 0 01.545.05c.174.025.345.068.51.127a.708.708 0 01.46.531l.971 4.25a.709.709 0 01-.184.652c-.092.1-.1.106-.97.56a7.02 7.02 0 003.45 3.463c.46-.878.467-.885.566-.977a.707.707 0 01.651-.184l4.25.97a.708.708 0 01.51.46 3.079 3.079 0 01.177 1.056 3.259 3.259 0 01-3.286 3.209z" fill="#E6E6E6"/></svg>